<svg xmlns="http://www.w3.org/2000/svg" width="70" height="59" fill="none"><path fill="#FDC305" d="M59.7 23.8a25.4 25.4 0 0 0-33.2-13.7 25.5 25.5 0 0 0-14 33 25.4 25.4 0 0 0 20 15.6L30.6 52c1.6 1 3.1 1.8 4.8 2.6l.3 4.5c1.8 0 3.5-.1 5.3-.5v-.7c.3-1.9 1-5.2 1.2-7.4 1.2-1 2.2-2.3 3-3.7l-.1.5c-.6 4.2-1.7 8.7-2.4 10l-.8 1.1a25.6 25.6 0 0 0 19.7-23.7c.1-3.7-.5-7.4-2-10.8Zm-1.4 3.8c-.5.4-1.4.7-1.5-.6l-.2-2.2s-2-3.4-2.7-3.4c-.7 0-5.8 3.4-7.1 5-1.2 1.2-1.4 1.1-1.4 3.4 0 1.7.2 8 0 13l-8 2.1c-2.6.7-5.2 1.3-7.8 1.7l-1-5.8h-.2l-2.5-13S22 26.3 20.7 26a3.8 3.8 0 0 0-4 .6 5 5 0 0 0-1.7 3.8l.4 1.4c0 .5-1.2.5-2 .5s-.9-1.5-.3-3.1a22.6 22.6 0 0 1 4-6.6s0-.4 1.2-.3l7.2.5v-2.3c6.8-.9 13.5-1.3 20.3-1.3V21c2.5-1.2 5.3-1.8 8.1-2a1 1 0 0 1 .8.4l2.6 3.4c.7 1 1.3 1.9 1.8 3-.1.6-.4 1.2-.8 1.8Z"/><path fill="#F06351" d="M56.3 21.5c.5.6 1 1.1 1 1.3l1.9 3c-.2.6-.5 1.2-.9 1.7-.4.4-1.4.7-1.5-.6l-.2-2.1s-2-3.4-2.7-3.4c-.7 0-5.8 3.4-7.1 5-1.2 1.2-1.4 1.1-1.4 3.4 0 1.4.2 6.6.1 11.1 1.8.2 4.5.7 5.3 1.9 0 0-.3-7.2 7.8-3.4 0 0 .2-9.7 11.4-7.3-3.8-4.4-8.4-8-13.7-10.6ZM45.8 19.2c0-5.5-.4-11-1.4-16.4 0 0-.1-1.3-.8-.2a14 14 0 0 0-1.2 4c-4.3-.3-8.6-.2-12.8.3-.8-2.8-2.2-4-3-3.7-.6.4-.7 3.3-.7 3.3l-.3 14c6.7-.9 13.5-1.3 20.2-1.3Z"/><path fill="#E55645" d="M45.2 46.7c.2-1 .2-2.4.3-4L37.4 45c-2.6.7-5.2 1.3-7.8 1.7l1 5 .1.3c1.6 1 3.1 1.8 4.8 2.5 2.4-1.1 4.7-2.5 6.9-4 1.1-1 2-2.3 2.8-3.7Z"/><path fill="#000" d="m32 16 1.3 1c.4.2.6.4.6.6 0 .2-.2.3-.6.3-.3 0-.9 0-1-.2 0-.2.6 0 1 0h.3a8 8 0 0 1-1.7-1.6ZM39.4 16.2l-1 1.3c-.2 0-.2.4.1.3l1.2-.3c.1 0 .1-.2 0-.1h-1l.8-1.2s0-.1 0 0ZM36.3 22.3c.4-.2.8-.6 1-1 .3-.7 0-1-.4-1-.6-.1-1.2 0-1.7.3-.4.4-.4.7 0 1l1 .7Z"/><path fill="#F06351" d="M36 23.5a2 2 0 0 1-.5.6c-.3.2-.7.4-1 .4-.6 0-1.1-.1-1.6-.5a2 2 0 0 1-.5-.4 1 1 0 0 0-.4-.3s.8 4.1 2.6 4.8c1.8.6 2.2-.8 2.2-1.1 0-1.2-.2-2.3-.8-3.3v-.2Z"/><path fill="#000" d="M34.2 24.6a3.5 3.5 0 0 1-2.3-1.4.1.1 0 0 1 0-.2.1.1 0 0 1 .2 0 3.2 3.2 0 0 0 2 1.3 2.1 2.1 0 0 0 1.7-1l.2-.2v.3s.4.7 1 .8c.7 0 1.1-.5 1.7-1.3a.1.1 0 0 1 .2.1c-.6 1-1.3 1.5-1.9 1.4a1.6 1.6 0 0 1-1-.7 2.3 2.3 0 0 1-1.8 1Z"/><path fill="#FDC305" d="M36.2 38c2 0 3.7-1.7 3.7-3.7s-1.7-3.7-3.7-3.7-3.8 1.6-3.8 3.7c0 2 1.7 3.7 3.8 3.7Z"/><path fill="#111" d="m41.1 31.2-3 1.3 1-5.5-7.4 9.6 3.1-1.3-1.1 5.6 7.4-9.7ZM33.8 35l4.1-5.3-.8 4 2-.9-4.2 5.4.8-4-2 .8ZM32.4 33.6c.6 0 1-.5 1-1.1 0-.6-.4-1.1-1-1.1-.7 0-1.2.5-1.2 1 0 .7.5 1.2 1.2 1.2ZM38.9 37.6c.4 0 .8-.3.8-.8 0-.4-.4-.8-.8-.8-.5 0-.8.4-.8.8 0 .5.3.8.8.8ZM39.8 35.5c.2 0 .4-.2.4-.4s-.2-.3-.4-.3-.3.1-.3.3c0 .2.1.4.3.4Z"/><path fill="#F06351" d="M45.8 21a57.1 57.1 0 0 0-5.1 5.2 31.7 31.7 0 0 1-5.3 4.8c-.2-.5-1.6-1.5-1.6-1.5s-3.2-2.1-5.2-3.8l-3.1-3h-2c2.8 4.1 7 7.2 12 8.7.8-.2 3.2-1.9 5-3.3 2.1-1.8 4.1-3.7 6-5.8.5-.6.9-1.3 1.1-2l-1.8.7Z"/><path fill="#FDC305" d="m65 3.5-8.4 9.3-1.2-2L63.5 0l1.6 3.5ZM62.5 17.1l5.5-4-.7-3.8-5.4 4.8.6 3ZM59.8 49l6.1 3.1 3-2.3-6.7-2.7-2.4 1.9ZM2 6l3-3.4 9.3 9-1.2 2.2L1.9 5.9ZM7.4 16.1l-4.7-3-2.4 3.8 5.1 2.4 2-3.2ZM13.9 52.1l-4.6 3.3 2.8 3.6 4-4-2.2-2.9Z"/><path fill="#F06351" d="M25.9 27.8S22 26.3 20.7 26a3.8 3.8 0 0 0-4 .6 5 5 0 0 0-1.7 3.8l.4 1.4c0 .5-1.2.5-2 .5s-.9-1.5-.3-3.1c.5-1.3 1.1-2.6 1.9-3.7-5.5 2.8-15 9.3-15 9.3a46 46 0 0 1 8.2.2c5.2.5 5 4.6 5 4.6 1.8-.5 3.7-.8 5.6-1 2-.2 2.2 2 2.2 2l.6 3.9c.8-.9 1.7-1.7 2.6-2.4a6 6 0 0 1 4.4-1.3l-2.7-13Z"/></svg>