
<svg xmlns="http://www.w3.org/2000/svg" id="cat-slim" viewBox="0 0 200 200" fill="none"><circle cx="100" cy="111" r="100" fill="#68B738"/><g clip-path="url(#a)"><path fill="#000" d="M139.7 0h-.8a7 7 0 0 0-2.9 3.2 31 31 0 0 0-2.6 6.8 3.3 3.3 0 0 1-3 2.7 14.7 14.7 0 0 0-10.4 7.5 54.6 54.6 0 0 0-3.7 8c-2.8 7.4-5 15-7.7 22.4-1.3 3.4-1.3 3.4-5.1 3.4-4.6 0-4.2-.7-4.3 4.3 0 1.6.5 2.4 2.2 2.3.5 0 1.3-.3 1.5.4.2.7-.5 1-1 1.4a18 18 0 0 1-8.6 4.9c-3.8 1-7.7 1.8-11.4 3a57.3 57.3 0 0 0-25 15.2 56 56 0 0 0-9.6 15.7A219.4 219.4 0 0 0 33.7 155c-1.3 8.6-2.2 17.3-3 26-.3 4.3-.7 8.6-.7 13h66.7c0-.9 0-1.8-.5-2.6a10 10 0 0 0-7.7-6.1c-1.4-.3-1.5-.7-.7-1.8 1.4-2 2.5-4 3.2-6.2 3.3-9.7 4.5-19.7 6.1-29.6A60 60 0 0 1 104 126c2.8-5 6.6-9.3 11.2-12.7 1.6-1.3 1.7-1.3 2 .8l.3 4.4c.6 9.4.5 18.9-.3 28.3a123.3 123.3 0 0 0 4.2 47.2H148a10.8 10.8 0 0 0-8.5-8.9 18 18 0 0 0-7.5.4c-1.2.3-1.7 0-1.8-1.3-.8-10.6-.2-21.2 2-31.6 2.7-12 4.7-24.2 6.1-36.4.5-5 2.1-9.7 4.6-14 2.4-4.2 4.4-8.6 6.8-12.9a11.7 11.7 0 0 0 .8-10.4c-.5-1.4-1-2.8-1.7-4.2-2-3.9-4-7.7-5.8-11.7-1-2-.8-2.2 1.4-2.3 3.2 0 3.2 0 3.3-3.3v-1.3c0-1.4-.5-2.1-2-2h-3c-1.4 0-1.8-.6-1.5-2a12.5 12.5 0 0 1 10.3-8.8 44 44 0 0 1 13.2.8 2 2 0 0 0 2.5-1.3l2.6-6a2 2 0 0 0-.2-2.2 71.1 71.1 0 0 0-24-21.5 3 3 0 0 1-.6-1.3c-.5-2.9-1.3-5.7-2.5-8.4a7 7 0 0 0-2.8-3.4Z"/></g><defs><clipPath id="a"><path fill="#fff" d="M30 0h140v194H30z"/></clipPath></defs></svg>
<svg xmlns="http://www.w3.org/2000/svg" id="cat-weight" viewBox="0 0 300 300" fill="none"><circle cx="134" cy="100" r="100" fill="#68B738"/><g clip-path="url(#a)"><path fill="#000" d="M246.2 55.5c2.3-3.7 5.4-6.8 9-9.2 2-1.4 3.2-1.4 4.4 1.2 1.6 3.8 3 7.8 1.8 12a4.6 4.6 0 0 0 .8 4.2l3.2 4.6a12.5 12.5 0 0 1 1.8 12.4c-.7 2-.8 4.2-.4 6.2s.4 4 0 6a7.5 7.5 0 0 1-5.4 6.4c-2.5.5-4.8 2-6.4 4a2 2 0 0 1-1.8 1c-2.4.4-8.4-5-8.4-7.4v-1.2c.2-7.2-.2-7.8-6.8-10.8a8.8 8.8 0 0 1-3.6-2.4c-1.2-1.6-2.8-1.4-4.6-.8-1.8.6-2.8 1.8-2.6 3.8.6 4.9.8 9.7.6 14.6 0 .6.2 1.1.4 1.6 6.2 9 8.6 19.6 11.6 29.8 2.4 7.8 6.8 12 14.8 12.6 1.3.1 2.6.3 3.8.6a8.3 8.3 0 0 1 6.8 6.4c1.4 4.2.6 5.2-3.6 5.2h-13c-1.6.1-3.3-.5-4.6-1.6-2-1.7-4.3-3-6.8-4-2.7-1-5-2.8-6.8-5.2-2.3-3.3-5-6.3-8-9-5.6-5.8-11.6-11.4-16.8-17.4-4-4-6.2-9.5-6.4-15.2 0-1.8-.4-2.6-2.4-1.8-.6.4-1.3.6-2 .6-5.6 0-8.4 3.4-10.4 8.4-1.8 4.2-4.2 8.2-6.4 12.4-1.2 2.6-1.9 5.5-2 8.4 0 4.8 1.2 6.4 5.6 8 2.8 1 5.4 2 6.8 4.8 1.6 3.2 1.2 4-2.2 4.2h-13.6a3.8 3.8 0 0 1-3.8-2.2l-3.6-6a12.1 12.1 0 0 1-1.4-10.8c.9-3.5 1-7 .2-10.6a16.8 16.8 0 0 1 3.4-14c1.2-1.4 1.2-2-.8-2.4a100.2 100.2 0 0 1-23.8-8.4c-6.4-2.4-7.6-2-9.4 4.6-1.6 5.6-3.2 11.2-4.4 17a34 34 0 0 0 2.2 18.4c.8 2.4 3.2 2.2 5 2.8 4 1.2 7.4 2.8 9 7 1.4 3.2 1.2 3.6-2.2 3.6-3.4 0-6.8-.2-10.4 0-3 0-6-1-8.4-2.8-9.6-6.4-12.4-16.2-13.2-26.8-.4-6.6-4-11.8-8.2-16.8-.8-1-1.6-1.4-2.8-.6a88.6 88.6 0 0 1-13.4 6 53.4 53.4 0 0 0-24.4 17.6c-2.3 3-3.8 6.5-4.4 10.2-.6 3.6.4 5.2 4 6.2s5.4 3 5.8 6.8c.2 1.6-.4 2.4-2 2.4H49.4a3.3 3.3 0 0 1-2.6-1.6c-2.5-3.1-3.8-7-3.8-11 0-6.9.5-13.8 1.8-20.6a12.6 12.6 0 0 1 6.8-9.6c11.8-5.6 18-16.2 23.6-27.2 1.2-2.2.2-2.6-1.8-2.4A33 33 0 0 0 58 84.1c-5.9 4.3-11.4 9-16.6 14.2-5.5 5.6-12.8 9-20.6 9.8C6.2 109-.6 100.7 0 87.5.2 83 2 78.7 4.8 75.3a8.5 8.5 0 0 1 9-3c3 .8 3.8 2.4 2.6 5.4l-2 3.4a15 15 0 0 0-2 4c-2.2 6 .8 10.2 7 10.8 6.6.6 12-2.2 17-6.2 6-4.8 11.4-10.4 16-16.6A41.6 41.6 0 0 1 81.2 57c4.6-.6 8.6-2.6 13-3.8a83 83 0 0 1 25.4-3.6c4 .2 8-.6 11.6-2.2 9.8-4 20-4 30.2-2 8 1.6 16 3.6 23.8 5.6 4.7.9 9.5.7 14-.4 8.8-2.2 17.8-3.6 26.8-4 6-.3 11.9.9 17.2 3.4 4 1.8 4 1.8 3 5.6Z"/></g><defs><clipPath id="a"><path fill="#fff" d="M0 44h268v112H0z"/></clipPath></defs></svg>

